<?xml version="1.0" encoding="utf-8"?>
<!-- Generator: Adobe Illustrator 23.0.2, SVG Export Plug-In . SVG Version: 6.00 Build 0)  -->
<svg version="1.1" id="Layer_1" xmlns="http://www.w3.org/2000/svg" xmlns:xlink="http://www.w3.org/1999/xlink" x="0px" y="0px"
	 viewBox="0 0 545.71 88.12" style="enable-background:new 0 0 545.71 88.12;" xml:space="preserve">
<style type="text/css">
	.st0{fill:#263B80;}
	.st1{fill:#27AAE1;}
</style>
<g>
	<g>
		<path class="st0" d="M44.06,0c1.42,0,2.83,0.07,4.21,0.2C29.82,2.32,15.39,21.15,15.39,44.06S29.82,85.8,48.28,87.92
			c-1.39,0.14-2.79,0.2-4.21,0.2C19.73,88.12,0,68.4,0,44.06S19.73,0,44.06,0z"/>
		<path class="st1" d="M62.19,74.6c-0.96,0.1-1.94,0.14-2.94,0.14c-15.5,0-28.31-11.5-30.39-26.42c-0.15-1.09-0.25-2.2-0.28-3.33
			v-0.01c-0.01-0.31-0.02-0.61-0.02-0.92c0-16.94,13.74-30.68,30.68-30.68c0.99,0,1.97,0.05,2.94,0.14
			c-9.67,1.11-17.76,8.82-21.17,19.37c3.34-0.06,6.69,1.17,9.25,3.72c4.96,4.97,4.96,13.01,0,17.97c-2.26,2.25-5.15,3.49-8.1,3.68
			C46.04,67.24,53.47,73.6,62.19,74.6z"/>
	</g>
	<g>
		<g>
			<path class="st0" d="M108.9,58.06c-3.86,3.81-8.85,5.58-14.27,5.58c-13.95,0-19.85-9.6-19.9-19.37
				c-0.05-9.82,6.33-19.8,19.9-19.8c5.1,0,9.93,1.93,13.79,5.74l-4.72,4.56c-2.47-2.41-5.79-3.54-9.07-3.54
				c-9.07,0-12.98,6.76-12.93,13.04c0.05,6.22,3.65,12.71,12.93,12.71c3.27,0,6.97-1.34,9.44-3.81L108.9,58.06z"/>
			<path class="st0" d="M149.78,44.22c-0.11,9.71-6.06,19.42-19.26,19.42s-19.31-9.5-19.31-19.37s6.33-19.8,19.31-19.8
				C143.45,24.48,149.89,34.4,149.78,44.22z M118.18,44.38c0.16,6.17,3.49,12.77,12.34,12.77s12.18-6.65,12.29-12.82
				c0.11-6.33-3.43-13.41-12.29-13.41S118.02,38.05,118.18,44.38z"/>
			<path class="st0" d="M173.66,62.95h-7.35L150.7,25.23h7.94l11.32,29.24l11.37-29.24h7.94L173.66,62.95z"/>
			<path class="st0" d="M221.62,62.78h-28.11c0-12.5,0-25.05,0-37.55h28.11v6.87h-21.08v8.64h20.33v6.6h-20.33v8.48h21.08V62.78z"/>
			<path class="st0" d="M260.41,62.78h-8.42l-10.94-12.55h-6.81v12.55h-7.08V25.18c5.96,0,11.91,0.05,17.87,0.05
				c8.85,0.05,13.52,5.96,13.52,12.45c0,5.15-2.36,10.35-9.5,11.8l11.37,12.82V62.78z M234.23,31.83v12.02h10.78
				c4.51,0,6.44-3,6.44-6.01c0-3-1.99-6.01-6.44-6.01H234.23z"/>
		</g>
		<g>
			<path class="st1" d="M291.83,32.47c-2.74-4.4-7.14-5.04-11.37-5.1c-4.4,0-11.37,1.61-11.37,7.62c0,4.78,5.15,5.9,11.48,7.08
				c7.24,1.4,14.75,2.68,14.75,10.78c-0.05,8.48-8.58,10.52-14.86,10.52c-5.85,0-12.5-2.41-15.4-8.16l2.58-1.29
				c2.31,4.56,8.21,6.81,12.82,6.81c4.61,0,11.96-1.29,11.96-7.94c0.05-5.63-6.17-6.87-12.34-8.05c-6.87-1.34-13.9-2.74-13.9-9.66
				c-0.16-7.94,8.1-10.41,14.27-10.41c5.37,0,10.03,0.86,13.73,6.38L291.83,32.47z"/>
			<path class="st1" d="M304.28,42.56h22v2.63h-22v14.81h23.71v2.79h-26.56V25.23h25.91v2.74h-23.07V42.56z"/>
			<path class="st1" d="M364.26,62.78l-4.13-9.23H337.7l-4.08,9.23h-3.11l16.85-37.55h3.17l16.85,37.55H364.26z M359,50.87
				l-10.09-22.85l-10.09,22.85H359z"/>
			<path class="st1" d="M402.14,62.78h-3.81l-12.98-14.22H375.1v14.22h-2.9V25.23c5.53,0,11,0,16.52,0c8.15,0,12.29,5.85,12.34,11.7
				c0.05,6.12-3.97,11.48-12.18,11.48L402.14,62.78z M375.1,45.83h13.31c6.55,0,9.44-3.7,9.5-8.96c0.05-4.4-2.95-8.96-9.17-8.96
				H375.1V45.83z"/>
			<path class="st1" d="M437.98,57.58c-3.76,3.75-8.75,5.63-13.68,5.63c-12.66,0-19.26-8.85-19.31-18.99
				c-0.11-10.03,6.44-19.42,19.31-19.42c4.94,0,9.93,1.88,13.68,5.63l-1.99,1.72c-3.22-3.22-7.46-4.78-11.7-4.78
				c-10.94,0-16.58,7.73-16.52,16.74c0.11,8.8,5.69,16.42,16.52,16.42c4.24,0,8.53-1.61,11.75-4.77L437.98,57.58z"/>
			<path class="st1" d="M471.61,62.78V45.72h-23.93v17.06h-2.9V25.23h2.9V43.1h23.93V25.23h2.9v37.55H471.61z"/>
			<path class="st1" d="M485.62,42.56h22v2.63h-22v14.81h23.71v2.79h-26.56V25.23h25.91v2.74h-23.07V42.56z"/>
			<path class="st1" d="M545.71,62.78h-3.81l-12.98-14.22h-10.25v14.22h-2.9V25.23c5.53,0,11,0,16.52,0
				c8.15,0,12.29,5.85,12.34,11.7c0.05,6.12-3.97,11.48-12.18,11.48L545.71,62.78z M518.67,45.83h13.31c6.55,0,9.44-3.7,9.5-8.96
				c0.05-4.4-2.95-8.96-9.17-8.96h-13.63V45.83z"/>
		</g>
	</g>
</g>
</svg>
