<?xml version="1.0" encoding="utf-8"?>
<!-- Generator: Adobe Illustrator 24.1.0, SVG Export Plug-In . SVG Version: 6.00 Build 0)  -->
<svg version="1.1"
	 id="svg2" xmlns:cc="http://creativecommons.org/ns#" xmlns:dc="http://purl.org/dc/elements/1.1/" xmlns:rdf="http://www.w3.org/1999/02/22-rdf-syntax-ns#" xmlns:svg="http://www.w3.org/2000/svg"
	 xmlns="http://www.w3.org/2000/svg" xmlns:xlink="http://www.w3.org/1999/xlink" x="0px" y="0px" viewBox="0 0 837 98.7"
	 style="enable-background:new 0 0 837 98.7;" xml:space="preserve">
<style type="text/css">
	.st0{fill:url(#path30_1_);}
	.st1{clip-path:url(#SVGID_2_);}
	.st2{fill:#2F2D2E;}
	.st3{fill:#F49729;}
	.st4{fill:#EC662B;}
	.st5{fill:#E5262E;}
	.st6{fill:#F6A02D;}
	.st7{fill:#314482;}
	.st8{fill:#289CD8;}
	.st9{fill:#303968;}
</style>
<g id="g10" transform="matrix(1.3333333,0,0,-1.3333333,0,98.666667)">
	<g id="g12">
		<g id="g14">
			<g id="g20">
				<g id="g22">

						<linearGradient id="path30_1_" gradientUnits="userSpaceOnUse" x1="298.6906" y1="-279.2767" x2="299.6906" y2="-279.2767" gradientTransform="matrix(172.5278 63.5382 -63.5382 172.5278 -69227.2656 29217.0156)">
						<stop  offset="0" style="stop-color:#31335A"/>
						<stop  offset="1" style="stop-color:#35529E"/>
					</linearGradient>
					<path id="path30" class="st0" d="M115.4,44.5L115.4,44.5c-0.1-6.9,6.2-10.8,10.9-13.1l0,0c4.8-2.4,6.5-3.9,6.4-6l0,0
						c0-3.2-3.9-4.6-7.4-4.7l0,0c-6.2-0.1-9.9,1.7-12.7,3l0,0l-2.2-10.5c2.9-1.3,8.2-2.5,13.8-2.5l0,0c13,0,21.6,6.4,21.6,16.4l0,0
						c0.1,12.7-17.5,13.4-17.4,19l0,0c0,1.7,1.7,3.5,5.3,4l0,0c1.8,0.2,6.7,0.4,12.2-2.1l0,0l2.2,10.2c-3,1.1-6.8,2.1-11.6,2.1l0,0
						C124.1,60.3,115.5,53.8,115.4,44.5 M168.9,59.4c-2.4,0-4.4-1.4-5.3-3.5l0,0L145,11.5h13l2.6,7.2h15.9l1.5-7.2h11.5l-10,48
						L168.9,59.4z M170.8,46.5l3.8-18h-10.3L170.8,46.5z M99.6,59.4l-10.3-48h12.4l10.3,48H99.6z M81.3,59.4L68.4,26.8l-5.2,27.8
						c-0.6,3.1-3,4.9-5.7,4.9l0,0H36.3L36,58.1c4.3-0.9,9.3-2.5,12.2-4.1l0,0c1.8-1,2.3-1.9,2.9-4.2l0,0l9.9-38.3h13.1l20.1,48
						L81.3,59.4z"/>
				</g>
			</g>
		</g>
	</g>
	<g id="g32">
		<g>
			<defs>
				<rect id="SVGID_1_" x="-174.7" y="-12.3" width="1397.3" height="98.7"/>
			</defs>
			<clipPath id="SVGID_2_">
				<use xlink:href="#SVGID_1_"  style="overflow:visible;"/>
			</clipPath>
			<g id="g34" class="st1">
				<g id="g40" transform="translate(262.7183,1.2266)">
					<path id="path42" class="st2" d="M0,0v4.8c0,1.8-1.1,3-3,3c-1,0-2-0.3-2.7-1.4C-6.2,7.3-7,7.8-8.2,7.8c-0.8,0-1.6-0.2-2.2-1.1
						v0.9h-1.7V0h1.7v4.2c0,1.3,0.7,2,1.9,2c1.1,0,1.7-0.7,1.7-2V0h1.7v4.2c0,1.3,0.8,2,1.9,2c1.1,0,1.7-0.7,1.7-2l0-4.2H0z
						 M24.8,7.6h-2.7v2.3h-1.7V7.6h-1.5V6.1h1.5V2.6c0-1.8,0.7-2.8,2.6-2.8c0.7,0,1.5,0.2,2.1,0.6l-0.5,1.4c-0.5-0.3-1-0.4-1.5-0.4
						c-0.8,0-1.1,0.5-1.1,1.3v3.4h2.7L24.8,7.6z M38.9,7.8c-1,0-1.6-0.4-2-1.1v0.9h-1.6V0h1.7v4.3c0,1.3,0.5,2,1.6,2
						c0.3,0,0.7,0,1-0.2l0.5,1.6C39.7,7.8,39.3,7.8,38.9,7.8 M17.5,7c-0.8,0.5-1.9,0.8-3.1,0.8c-1.9,0-3.2-0.9-3.2-2.4
						c0-1.2,0.9-2,2.6-2.2L14.7,3C15.6,2.9,16,2.6,16,2.2c0-0.6-0.6-0.9-1.7-0.9c-1.1,0-2,0.4-2.5,0.8L11,0.8c0.9-0.7,2.1-1,3.3-1
						c2.2,0,3.5,1,3.5,2.5c0,1.3-1,2-2.7,2.3l-0.8,0.1C13.6,4.8,13,4.9,13,5.4c0,0.6,0.5,0.9,1.5,0.9c1,0,1.9-0.4,2.4-0.7L17.5,7z
						 M62,7.8c-1,0-1.6-0.4-2-1.1v0.9h-1.6V0H60v4.3c0,1.3,0.5,2,1.6,2c0.3,0,0.7,0,1-0.2l0.5,1.6C62.8,7.8,62.3,7.8,62,7.8
						 M40.6,3.8c0-2.3,1.6-4,4.1-4c1.1,0,1.9,0.3,2.7,0.9l-0.8,1.3c-0.6-0.4-1.3-0.7-2-0.7c-1.3,0-2.3,1-2.3,2.4
						c0,1.5,1,2.4,2.3,2.4c0.7,0,1.4-0.2,2-0.7l0.8,1.3c-0.8,0.7-1.6,0.9-2.7,0.9C42.2,7.8,40.6,6.1,40.6,3.8 M56.1,3.8v3.8h-1.7
						V6.7c-0.5,0.7-1.3,1.1-2.4,1.1c-2.1,0-3.8-1.7-3.8-4c0-2.3,1.7-4,3.8-4c1.1,0,1.9,0.4,2.4,1.1V0h1.7V3.8z M50,3.8
						c0,1.3,0.9,2.4,2.3,2.4c1.4,0,2.3-1.1,2.3-2.4c0-1.4-0.9-2.4-2.3-2.4C50.8,1.4,50,2.5,50,3.8 M30,7.8c-2.2,0-3.8-1.6-3.8-4
						c0-2.4,1.6-4,3.9-4c1.1,0,2.2,0.3,3.1,1.1l-0.8,1.2c-0.6-0.5-1.5-0.8-2.2-0.8c-1.1,0-2,0.5-2.3,1.9h5.7c0,0.2,0,0.4,0,0.6
						C33.6,6.2,32.1,7.8,30,7.8 M29.9,6.3c1.1,0,1.8-0.7,1.9-1.8h-4C28.1,5.6,28.7,6.3,29.9,6.3 M71.5,3.8v6.9h-1.7v-4
						c-0.5,0.7-1.3,1.1-2.4,1.1c-2.1,0-3.8-1.7-3.8-4c0-2.3,1.7-4,3.8-4c1.1,0,1.9,0.4,2.4,1.1V0h1.7L71.5,3.8z M65.4,3.8
						c0,1.3,0.9,2.4,2.3,2.4C69,6.3,70,5.2,70,3.8c0-1.4-0.9-2.4-2.3-2.4C66.2,1.4,65.4,2.5,65.4,3.8 M9.3,3.8v3.8H7.7V6.7
						C7.2,7.4,6.4,7.8,5.3,7.8c-2.1,0-3.8-1.7-3.8-4c0-2.3,1.7-4,3.8-4c1.1,0,1.9,0.4,2.4,1.1V0h1.7L9.3,3.8z M3.2,3.8
						c0,1.3,0.9,2.4,2.3,2.4c1.4,0,2.3-1.1,2.3-2.4c0-1.4-0.9-2.4-2.3-2.4C4.1,1.4,3.2,2.5,3.2,3.8 M74.3,1.1c0.1,0,0.2,0,0.3-0.1
						c0.1,0,0.2-0.1,0.2-0.2C74.9,0.8,75,0.7,75,0.6s0.1-0.2,0.1-0.3c0-0.1,0-0.2-0.1-0.3s-0.1-0.2-0.2-0.2
						c-0.1-0.1-0.2-0.1-0.2-0.2c-0.1,0-0.2-0.1-0.3-0.1c-0.1,0-0.2,0-0.3,0.1s-0.2,0.1-0.2,0.2c-0.1,0.1-0.1,0.2-0.2,0.2
						c0,0.1-0.1,0.2-0.1,0.3c0,0.1,0,0.2,0.1,0.3c0,0.1,0.1,0.2,0.2,0.2C73.8,1,73.9,1,74,1C74.1,1.1,74.2,1.1,74.3,1.1 M74.3-0.2
						c0.1,0,0.2,0,0.2,0c0.1,0,0.1,0.1,0.2,0.1C74.8,0,74.8,0,74.8,0.1c0,0.1,0,0.1,0,0.2s0,0.2,0,0.2c0,0.1-0.1,0.1-0.1,0.2
						c-0.1,0.1-0.1,0.1-0.2,0.1c-0.1,0-0.1,0-0.2,0s-0.2,0-0.2,0c-0.1,0-0.1-0.1-0.2-0.1c-0.1-0.1-0.1-0.1-0.1-0.2
						c0-0.1,0-0.1,0-0.2s0-0.2,0-0.2c0-0.1,0.1-0.1,0.1-0.2c0.1-0.1,0.1-0.1,0.2-0.1C74.1-0.2,74.2-0.2,74.3-0.2 M74.3,0.7
						c0.1,0,0.2,0,0.2-0.1c0,0,0.1-0.1,0.1-0.2c0-0.1,0-0.1-0.1-0.1c0,0-0.1-0.1-0.2-0.1L74.6,0h-0.2l-0.2,0.3h-0.1V0H74v0.7H74.3z
						 M74.2,0.6V0.4h0.2c0,0,0.1,0,0.1,0c0,0,0,0,0,0.1c0,0,0,0.1,0,0.1c0,0-0.1,0-0.1,0H74.2z"/>
				</g>
				<g id="g44" transform="translate(336.062,26.5781)">
					<path id="path46" class="st3" d="M0,0v0.9h0.4v0.2h-1V0.9h0.4l0-0.9H0z M1.8,0v1.1H1.6L1.2,0.3L0.9,1.1H0.6V0h0.2v0.8l0.3-0.7
						h0.2l0.3,0.7V0H1.8z"/>
				</g>
				<path id="path48" class="st4" d="M304.9,21.8h-25.1v45.1h25.1V21.8z"/>
				<g id="g50" transform="translate(281.3887,44.3647)">
					<path id="path52" class="st5" d="M0,0c0,9.2,4.3,17.3,11,22.6c-4.9,3.8-11,6.1-17.7,6.1c-15.9,0-28.7-12.9-28.7-28.7
						c0-15.9,12.9-28.7,28.7-28.7c6.7,0,12.9,2.3,17.7,6.1C4.3-17.3,0-9.2,0,0"/>
				</g>
				<g id="g54" transform="translate(338.7803,44.3647)">
					<path id="path56" class="st6" d="M0,0c0-15.9-12.9-28.7-28.7-28.7c-6.7,0-12.9,2.3-17.7,6.1c6.7,5.3,11,13.4,11,22.6
						c0,9.2-4.3,17.3-11,22.6c4.9,3.8,11,6.1,17.7,6.1C-12.9,28.7,0,15.9,0,0"/>
				</g>
				<g id="g58" transform="translate(535.3271,40.8257)">
					<path id="path60" class="st7" d="M0,0h-5.5c-0.5,0-1-0.3-1.3-0.7l-7.6-11.2l-3.2,10.8C-17.9-0.5-18.5,0-19.2,0h-5.4
						c-0.5,0-1-0.4-1-1c0-0.1,0-0.2,0.1-0.3l6.1-17.8l-5.7-8.1c-0.3-0.4-0.2-1,0.2-1.3c0.2-0.1,0.4-0.2,0.6-0.2h5.5
						c0.5,0,1,0.3,1.3,0.7L0.8-1.5c0.3,0.4,0.2,1-0.2,1.3C0.4-0.1,0.2,0,0,0 M-36.9-10.7c-0.5-3.1-3-5.2-6.2-5.2
						c-1.6,0-2.9,0.5-3.7,1.5c-0.8,1-1.1,2.3-0.9,3.9c0.5,3.1,3,5.3,6.2,5.3c1.6,0,2.8-0.5,3.7-1.5C-37-7.8-36.6-9.2-36.9-10.7
						 M-29.2,0h-5.5c-0.5,0-0.9-0.3-0.9-0.8l-0.2-1.5l-0.4,0.6c-1.2,1.7-3.8,2.3-6.5,2.3c-6.1,0-11.2-4.6-12.3-11
						c-0.5-3.2,0.2-6.3,2-8.4c1.7-2,4.1-2.8,6.9-2.8c4.9,0,7.6,3.1,7.6,3.1l-0.2-1.5c-0.1-0.5,0.3-1,0.8-1.1c0,0,0.1,0,0.1,0h4.9
						c0.8,0,1.5,0.6,1.6,1.3l3,18.8c0.1,0.5-0.3,1-0.8,1.1C-29.1,0-29.2,0-29.2,0 M-62.2-0.1c-0.6-4.1-3.8-4.1-6.8-4.1h-1.7l1.2,7.7
						c0.1,0.5,0.5,0.8,0.9,0.8h0.8c2.1,0,4,0,5-1.2C-62.1,2.4-61.9,1.3-62.2-0.1 M-63.5,10.6H-75c-0.8,0-1.5-0.6-1.6-1.3l-4.6-29.4
						c-0.1-0.5,0.3-1,0.8-1.1c0.1,0,0.1,0,0.1,0h5.5c0.8,0,1.5,0.6,1.6,1.3l1.2,7.9c0.1,0.8,0.8,1.3,1.6,1.3h3.6
						c7.5,0,11.9,3.7,13,10.9c0.5,3.2,0,5.7-1.5,7.4C-56.8,9.6-59.7,10.6-63.5,10.6"/>
				</g>
				<g id="g62" transform="translate(594.3174,50.6216)">
					<path id="path64" class="st8" d="M0,0l-4.7-29.9c-0.1-0.5,0.3-1,0.8-1.1c0,0,0.1,0,0.1,0H1c0.8,0,1.5,0.6,1.6,1.3L7.2-0.3
						c0.1,0.5-0.3,1-0.8,1.1c0,0-0.1,0-0.1,0H0.9C0.5,0.8,0.1,0.5,0,0 M-14.1-20.5c-0.5-3.1-3-5.2-6.2-5.2c-1.6,0-2.9,0.5-3.7,1.5
						c-0.8,1-1.1,2.3-0.9,3.9c0.5,3.1,3,5.3,6.1,5.3c1.6,0,2.8-0.5,3.7-1.5C-14.2-17.6-13.9-19-14.1-20.5 M-6.5-9.8H-12
						c-0.5,0-0.9-0.3-0.9-0.8l-0.2-1.5l-0.4,0.6c-1.2,1.7-3.8,2.3-6.5,2.3c-6.1,0-11.2-4.6-12.3-11c-0.5-3.2,0.2-6.3,2-8.4
						c1.7-2,4.1-2.8,6.9-2.8c4.9,0,7.6,3.1,7.6,3.1l-0.2-1.5c-0.1-0.5,0.3-1,0.8-1.1c0.1,0,0.1,0,0.2,0h4.9c0.8,0,1.5,0.6,1.6,1.3
						l3,18.8c0.1,0.5-0.3,1-0.8,1.1C-6.4-9.8-6.4-9.8-6.5-9.8 M-39.4-9.9C-40-14-43.2-14-46.2-14h-1.7l1.2,7.7
						c0.1,0.5,0.5,0.8,0.9,0.8h0.8c2.1,0,4,0,5-1.2C-39.4-7.4-39.2-8.5-39.4-9.9 M-40.7,0.8h-11.5c-0.8,0-1.5-0.6-1.6-1.3l-4.6-29.4
						c-0.1-0.5,0.3-1,0.8-1.1c0,0,0.1,0,0.1,0h5.9c0.5,0,1,0.4,1.1,0.9l1.3,8.3c0.1,0.8,0.8,1.3,1.6,1.3h3.6c7.6,0,11.9,3.7,13,10.9
						c0.5,3.2,0,5.7-1.5,7.4C-34-0.2-36.9,0.8-40.7,0.8"/>
				</g>
				<g id="g66" transform="translate(406.5693,13.8789)">
					<path id="path68" class="st7" d="M0,0l0.9,5.6l-2,0h-9.3l6.5,41.1c0,0.3,0.3,0.5,0.5,0.4h15.7c5.2,0,8.8-1.1,10.7-3.2
						c0.9-1,1.4-2.1,1.7-3.2c0.3-1.2,0.3-2.7,0-4.4l0-0.1V35l0.9-0.5c0.7-0.3,1.3-0.8,1.8-1.4c0.8-0.9,1.2-2,1.4-3.2
						c0.2-1.3,0.1-2.9-0.2-4.7c-0.4-2.1-1.1-3.9-1.9-5.3c-0.8-1.3-1.8-2.5-3.1-3.4c-1.2-0.8-2.6-1.5-4.1-1.9
						C18,14.2,16.3,14,14.4,14h-1.2c-0.9,0-1.7-0.3-2.4-0.9c-0.7-0.6-1.1-1.4-1.2-2.2l-0.1-0.5L7.9,0.6L7.8,0.3c0-0.1,0-0.2-0.1-0.2
						C7.7,0,7.6,0,7.6,0H0z"/>
				</g>
				<g id="g70" transform="translate(433.0181,49.8892)">
					<path id="path72" class="st8" d="M0,0c0-0.3-0.1-0.6-0.2-0.9c-2.1-10.6-9.2-14.3-18.2-14.3H-23c-1.1,0-2-0.8-2.2-1.9l-2.4-15
						l-0.7-4.2c-0.1-0.6,0.3-1.2,1-1.3c0.1,0,0.1,0,0.2,0h8.2c1,0,1.8,0.7,1.9,1.7l0.1,0.4l1.5,9.8l0.1,0.5c0.1,1,1,1.7,1.9,1.7h1.2
						c7.9,0,14.1,3.2,15.9,12.5C4.6-7.3,4.2-4,2.2-1.7C1.6-1,0.8-0.4,0,0"/>
				</g>
				<g id="g74" transform="translate(430.8496,50.7539)">
					<path id="path76" class="st9" d="M0,0c-0.7,0.2-1.3,0.3-2,0.4c-1.3,0.2-2.7,0.3-4.1,0.3h-12.3c-1,0-1.8-0.7-1.9-1.7L-23-17.5
						L-23-18c0.2,1.1,1.1,1.9,2.2,1.9h4.6c9.1,0,16.2,3.7,18.2,14.3c0.1,0.3,0.1,0.6,0.2,0.9C1.6-0.6,1.1-0.3,0.5-0.1
						C0.3-0.1,0.2,0,0,0"/>
				</g>
				<g id="g78" transform="translate(410.5039,49.8354)">
					<path id="path80" class="st7" d="M0,0c0.1,1,1,1.7,1.9,1.7h12.3c1.5,0,2.8-0.1,4.1-0.3C19.2,1.2,20,1,20.8,0.8
						c0.6-0.2,1.2-0.4,1.7-0.7c0.6,3.9,0,6.6-2.1,9c-2.3,2.7-6.6,3.8-12,3.8H-7.3c-1.1,0-2-0.8-2.2-1.9l-6.5-41.5
						c-0.1-0.7,0.4-1.4,1.1-1.5c0.1,0,0.1,0,0.2,0h9.7l2.4,15.5L0,0z"/>
				</g>
			</g>
		</g>
	</g>
</g>
</svg>
