<?xml version="1.0" encoding="utf-8"?>
<!-- Generator: Adobe Illustrator 24.1.0, SVG Export Plug-In . SVG Version: 6.00 Build 0)  -->
<svg version="1.1" id="Capa_1" xmlns="http://www.w3.org/2000/svg" xmlns:xlink="http://www.w3.org/1999/xlink" x="0px" y="0px"
	 viewBox="0 0 305.3 93.1" style="enable-background:new 0 0 305.3 93.1;" xml:space="preserve">
<style type="text/css">
	.st0{fill:#FFFFFF;}
	.st1{fill:#3DC902;}
	.st2{fill-rule:evenodd;clip-rule:evenodd;fill:#3DC902;}
</style>
<g>
	<g>
		<path class="st0" d="M62.6,40.6c2.8,2.5,4.2,6.1,4.2,10.8c0,1.8-0.2,3.5-0.6,5.2l-4.8,23.8H49l4.6-23c0.2-0.9,0.3-1.9,0.3-3
			c0-2.2-0.6-3.9-1.8-5.1c-1.2-1.2-3.1-1.8-5.5-1.8c-3.2,0-5.9,0.9-8,2.8c-2.1,1.8-3.5,4.6-4.3,8.3l-4.3,21.8H17.6l8.6-43H38l-1,4.6
			c3.8-3.5,8.6-5.3,14.2-5.3C56,36.8,59.8,38.1,62.6,40.6z"/>
		<path class="st0" d="M124.8,37.5l-8.6,43h-11.8l0.9-4.6c-1.9,1.8-4,3.1-6.4,4c-2.4,0.9-4.9,1.3-7.6,1.3c-4.7,0-8.4-1.3-11.2-3.8
			c-2.8-2.6-4.2-6.2-4.2-10.8c0-1.8,0.2-3.5,0.6-5.2l4.7-23.8h12.5l-4.6,23c-0.2,1-0.3,2.1-0.3,3.1c0,4.5,2.4,6.7,7.2,6.7
			c3.1,0,5.7-0.9,7.8-2.8c2.1-1.8,3.5-4.6,4.2-8.3l4.4-21.8H124.8z"/>
		<path class="st0" d="M179.8,37.5l-8.6,43h-11.8l0.9-4.6c-1.9,1.8-4,3.1-6.4,4c-2.4,0.9-4.9,1.3-7.6,1.3c-4.7,0-8.4-1.3-11.2-3.8
			c-2.8-2.6-4.2-6.2-4.2-10.8c0-1.8,0.2-3.5,0.6-5.2l4.7-23.8h12.5l-4.6,23c-0.2,1-0.3,2.1-0.3,3.1c0,4.5,2.4,6.7,7.2,6.7
			c3.1,0,5.7-0.9,7.8-2.8c2.1-1.8,3.5-4.6,4.2-8.3l4.4-21.8H179.8z"/>
		<path class="st0" d="M224.8,39.2c2.9,1.5,5.1,3.8,6.8,6.7c1.7,2.9,2.5,6.3,2.5,10.3c0,4.7-1.1,9-3.2,12.8c-2.1,3.8-5,6.8-8.6,9
			c-3.6,2.2-7.7,3.2-12.1,3.2c-3.4,0-6.3-0.6-8.7-1.8s-4.3-2.9-5.7-5.3l-1.3,6.4h-11.8l11.8-59.4h12.5l-4,20
			c3.5-2.9,7.6-4.3,12.4-4.3C218.9,36.8,222,37.6,224.8,39.2z M215.4,69c1.9-1.2,3.4-2.9,4.5-5c1.1-2.1,1.6-4.6,1.6-7.4
			c0-2.9-0.9-5.3-2.6-7c-1.7-1.7-4.1-2.6-7.2-2.6c-2.4,0-4.6,0.6-6.5,1.8c-1.9,1.2-3.4,2.9-4.5,5c-1.1,2.1-1.6,4.6-1.6,7.4
			c0,2.9,0.9,5.3,2.6,7c1.7,1.7,4.1,2.6,7.2,2.6C211.3,70.8,213.5,70.2,215.4,69z"/>
		<path class="st0" d="M289.9,37.5l-8.6,43h-11.8l0.9-4.6c-1.9,1.8-4,3.1-6.4,4c-2.4,0.9-4.9,1.3-7.6,1.3c-4.7,0-8.4-1.3-11.2-3.8
			c-2.8-2.6-4.2-6.2-4.2-10.8c0-1.8,0.2-3.5,0.6-5.2l4.7-23.8h12.5l-4.6,23c-0.2,1-0.3,2.1-0.3,3.1c0,4.5,2.4,6.7,7.2,6.7
			c3.1,0,5.7-0.9,7.8-2.8c2.1-1.8,3.5-4.6,4.2-8.3l4.4-21.8H289.9z"/>
	</g>
</g>
<polygon class="st1" points="184.2,24.7 26,24.7 27.1,21.5 185.4,21.5 "/>
<g>
	<g>
		<path class="st2" d="M252.6,6.5c0,0-25.4-10.4-35.1,14.1c1.4,1.5,11.5-0.5,14.8-4.6c-4.3,8.4-18.2,8.7-18.2,8.7
			s16.3,11.3,27.6-6.5C245.9,12,249.4,7.2,252.6,6.5z"/>
	</g>
</g>
</svg>
